Coordinates
version=1
nRows=12
nColumns=23
inDegrees=yes

Units are S.I. units (second, meters, Newtons, ...)
If the header above contains a line with 'inDegrees', this indicates whether rotational values are in degrees (yes) or radians (no).

endheader
time	pelvis_tilt	pelvis_list	pelvis_rotation	pelvis_tx	pelvis_ty	pelvis_tz	hip_flexion_r	hip_adduction_r	hip_rotation_r	knee_angle_r	knee_angle_r_beta	ankle_angle_r	subtalar_angle_r	mtp_angle_r	hip_flexion_l	hip_adduction_l	hip_rotation_l	knee_angle_l	knee_angle_l_beta	ankle_angle_l	subtalar_angle_l	mtp_angle_l
      7.50000000	     -1.11539742	     -8.60642074	     -2.64293910	      2.23992327	      0.93504943	      1.03344909	     13.81067865	     11.18569335	     -7.86311953	     42.58831885	      0.74330639	     23.50774863	     -3.21693080	      0.00000000	     22.48127718	    -12.54557354	      1.35714199	     82.74441717	      1.44416252	     -0.96373160	    -21.07516174	      0.00000000
      7.50666667	     -0.82843471	     -8.53471081	     -2.45541331	      2.23953307	      0.93838002	      1.03321460	     11.72986574	     11.01035807	     -7.94245411	     41.30341634	      0.72088061	     23.20816619	     -2.51698364	      0.00000000	     23.41853200	    -12.55193629	      1.34640588	     81.63403851	      1.42478275	     -0.27735560	    -20.88337934	      0.00000000
      7.51333333	     -0.80901999	     -8.41091408	     -2.27280313	      2.23920031	      0.94170855	      1.03294219	      9.93986839	     10.80340878	     -8.01882727	     39.96707635	      0.69755707	     22.65642564	     -1.95069121	      0.00000000	     24.56000071	    -12.43744447	      1.34590818	     80.28485446	      1.40123505	      0.31252450	    -20.64646705	      0.00000000
      7.52000000	     -1.30826790	     -8.00881191	     -2.41590173	      2.23863105	      0.94463198	      1.03304506	      8.86788340	     10.38374950	     -7.73683292	     38.91037437	      0.67911415	     22.10017266	     -1.47134485	      0.00000000	     26.09799129	    -12.06302931	      1.04370895	     78.70609819	      1.37368055	      0.86238336	    -20.36587919	      0.00000000
      7.52666667	     -0.81310133	     -7.89855193	     -2.09401744	      2.23886302	      0.94925282	      1.03253524	      6.37662641	     10.14079420	     -7.98219803	     37.14380304	      0.64828166	     20.88319627	     -0.88685578	      0.00000000	     26.38390500	    -11.90677626	      0.93350191	     76.72565613	      1.33911532	      1.47746714	    -19.78925982	      0.00000000
      7.53333333	     -0.87115393	     -7.59567953	     -2.07783467	      2.23890538	      0.95336886	      1.03243196	      4.63557126	      9.82806577	     -7.77808889	     35.62002804	      0.62168677	     19.70447616	     -0.57056085	      0.00000000	     27.09977434	    -11.57681376	      0.60680790	     74.53196711	      1.30082822	      2.00034429	    -19.19007864	      0.00000000
      7.54000000	     -0.97553335	     -7.24325239	     -2.07952120	      2.23901308	      0.95757719	      1.03233061	      2.96746308	      9.46345750	     -7.56432412	     34.07546750	      0.59472910	     18.25504690	     -0.35406224	      0.00000000	     27.72791215	    -11.17535036	      0.22300772	     72.10151378	      1.25840881	      2.49297413	    -18.48121055	      0.00000000
      7.54666667	     -1.12307730	     -6.82113784	     -2.06950448	      2.23922985	      0.96185487	      1.03218781	      1.38255111	      9.03446479	     -7.33441415	     32.53626923	      0.56786502	     16.59742702	     -0.29599768	      0.00000000	     28.25439489	    -10.66271319	     -0.19529876	     69.42184770	      1.21163982	      2.93501690	    -17.69638762	      0.00000000
      7.55333333	     -1.27373092	     -6.32657714	     -2.03320859	      2.23955391	      0.96613823	      1.03198187	     -0.14009548	      8.50672552	     -7.20184370	     31.05367593	      0.54198889	     14.82806621	     -0.22651494	      0.00000000	     28.63764053	    -10.02469462	     -0.63017120	     66.50137831	      1.16066801	      3.32457415	    -16.89110082	      0.00000000
      7.56000000	     -1.70859444	     -5.66834864	     -2.03937848	      2.23978468	      0.96996598	      1.03171515	     -1.14989161	      7.72615068	     -7.30000909	     29.91681064	      0.52214685	     12.97615915	     -0.02592175	      0.00000000	     29.20832338	     -9.15371654	     -1.08896632	     63.38330696	      1.10624740	      3.65679177	    -16.05023084	      0.00000000
      7.56666667	     -1.89164154	     -5.07425084	     -1.92592363	      2.24031522	      0.97408840	      1.03136755	     -2.48456629	      7.05608179	     -7.41348553	     28.61826298	      0.49948292	     11.03515680	     -0.02836513	      0.00000000	     29.35800870	     -8.35432823	     -1.56299343	     60.03142158	      1.04774596	      4.00915563	    -15.14553002	      0.00000000
      7.57333333	     -1.99572386	     -4.53749002	     -1.79725065	      2.24085780	      0.97823065	      1.03097682	     -3.86589221	      6.51625509	     -7.35185307	     27.33096782	      0.47701538	      8.98560415	     -0.23454623	      0.00000000	     29.28850613	     -7.54112205	     -1.94105723	     56.47899452	      0.98574441	      4.38113758	    -14.08714537	      0.00000000
